<svg xmlns="http://www.w3.org/2000/svg" width="16" height="16" viewBox="0 0 16 16" fill="none">
  <path d="M11.9333 11.5933C11.76 11.06 11.26 10.6667 10.6666 10.6667H9.99998V8.66668C9.99998 8.48987 9.92974 8.3203 9.80472 8.19527C9.67969 8.07025 9.51012 8.00001 9.33331 8.00001H5.33331V6.66668H6.66665C6.84346 6.66668 7.01303 6.59644 7.13805 6.47141C7.26307 6.34639 7.33331 6.17682 7.33331 6.00001V4.66668H8.66665C9.02027 4.66668 9.35941 4.5262 9.60945 4.27615C9.8595 4.0261 9.99998 3.68697 9.99998 3.33334V3.06001C11.9533 3.84668 13.3333 5.76001 13.3333 8.00001C13.3333 9.38668 12.8 10.6467 11.9333 11.5933ZM7.33331 13.2867C4.69998 12.96 2.66665 10.72 2.66665 8.00001C2.66665 7.58668 2.71998 7.18668 2.80665 6.80668L5.99998 10V10.6667C5.99998 11.0203 6.14046 11.3594 6.3905 11.6095C6.64055 11.8595 6.97969 12 7.33331 12M7.99998 1.33334C7.1245 1.33334 6.25759 1.50578 5.44876 1.84081C4.63992 2.17584 3.90499 2.66691 3.28593 3.28596C2.03569 4.53621 1.33331 6.2319 1.33331 8.00001C1.33331 9.76812 2.03569 11.4638 3.28593 12.7141C3.90499 13.3331 4.63992 13.8242 5.44876 14.1592C6.25759 14.4942 7.1245 14.6667 7.99998 14.6667C9.76809 14.6667 11.4638 13.9643 12.714 12.7141C13.9643 11.4638 14.6666 9.76812 14.6666 8.00001C14.6666 7.12453 14.4942 6.25762 14.1592 5.44879C13.8241 4.63995 13.3331 3.90502 12.714 3.28596C12.095 2.66691 11.36 2.17584 10.5512 1.84081C9.74236 1.50578 8.87546 1.33334 7.99998 1.33334Z" fill="#929292"/>
</svg>